<svg xmlns="http://www.w3.org/2000/svg" aria-hidden="true" style="width:0;height:0;position:absolute;overflow:hidden"><defs><symbol id="icon-logo" viewBox="0 0 37 32"><path fill="#28a745" d="M33.831 2.003c-3.419.194-10.215.902-14.41 3.474a.961.961 0 0 0-.454.823v22.742c0 .722.788 1.178 1.453.843 4.316-2.176 10.559-2.77 13.645-2.932 1.054-.056 1.873-.902 1.873-1.916V3.922c.001-1.107-.958-1.984-2.107-1.919zM16.517 5.478C12.322 2.906 5.526 2.199 2.107 2.004.958 1.939-.001 2.816-.001 3.923v21.116c0 1.015.819 1.861 1.873 1.916 3.088.162 9.333.757 13.65 2.934.663.334 1.448-.121 1.448-.841V6.29a.94.94 0 0 0-.454-.812z" style="fill:var(--color1,#28a745)"/></symbol><symbol id="icon-arrow_btn" viewBox="0 0 16 32"><path fill="#fff" style="fill:var(--color1,#fff)" d="m14.019 17.062-8.5 8.5a1.493 1.493 0 0 1-2.119 0L1.987 24.15a1.495 1.495 0 0 1 0-2.119l6.025-6.025-6.025-6.025a1.495 1.495 0 0 1 0-2.119l1.406-1.425a1.493 1.493 0 0 1 2.119 0l8.5 8.5c.594.588.594 1.538.006 2.125z"/></symbol><symbol id="icon-pensil" viewBox="0 0 32 32"><path fill="#fff" d="m31.119 8.881-2.881 2.881a.75.75 0 0 1-1.063 0l-6.938-6.938a.75.75 0 0 1 0-1.063L23.118.88a3.006 3.006 0 0 1 4.244 0l3.756 3.756a2.995 2.995 0 0 1 0 4.244zM17.763 6.238 1.35 22.651.025 30.245a1.503 1.503 0 0 0 1.738 1.738l7.594-1.331L25.77 14.24a.75.75 0 0 0 0-1.063l-6.938-6.938a.758.758 0 0 0-1.069 0zM7.756 21.244a.87.87 0 0 1 0-1.237l9.625-9.625c.344-.344.894-.344 1.238 0s.344.894 0 1.238l-9.625 9.625a.87.87 0 0 1-1.237 0zM5.5 26.5h3v2.269l-4.031.706-1.944-1.944.706-4.031H5.5v3z" style="fill:var(--color2,#fff)"/></symbol><symbol id="icon-university" viewBox="0 0 32 32"><path fill="#fff" d="M31 8v1a.498.498 0 0 1-.5.5H29v.75a.75.75 0 0 1-.75.75H3.75a.75.75 0 0 1-.75-.75V9.5H1.5A.498.498 0 0 1 1 9V8a.5.5 0 0 1 .308-.462l14.5-5.5a.496.496 0 0 1 .382 0l14.5 5.5a.503.503 0 0 1 .308.462zm-1.5 19h-27A1.5 1.5 0 0 0 1 28.5v1a.498.498 0 0 0 .5.5h29a.498.498 0 0 0 .5-.5v-1a1.5 1.5 0 0 0-1.5-1.5zM6 12v12H3.75a.75.75 0 0 0-.75.75V26h26v-1.25a.75.75 0 0 0-.75-.75H26V12h-4v12h-4V12h-4v12h-4V12H6z" style="fill:var(--color2,#fff)"/></symbol><symbol id="icon-book" viewBox="0 0 32 32"><path fill="#fff" d="M21.858 6.167a5.9 5.9 0 1 0-11.801.001 5.9 5.9 0 0 0 11.801-.001zm-7.277 8.917c-3.646-2.232-9.552-2.845-12.524-3.014-.999-.056-1.831.704-1.831 1.665v13.693c0 .881.712 1.615 1.628 1.662 2.683.141 8.112.656 11.864 2.546.576.29 1.259-.105 1.259-.73V15.788a.818.818 0 0 0-.395-.704zm15.278-3.014c-2.971.168-8.878.782-12.524 3.014a.833.833 0 0 0-.394.715v15.106c0 .626.685 1.022 1.262.731 3.751-1.888 9.177-2.404 11.859-2.544.916-.048 1.628-.782 1.628-1.663V13.735c-.001-.961-.833-1.721-1.832-1.665z" style="fill:var(--color2,#fff)"/></symbol><symbol id="Fasebook" viewBox="0 0 32 32"><path style="fill:var(--color1, )" d="M31.5 16.343c0-8.563-6.938-15.5-15.5-15.5S.5 7.781.5 16.343c0 7.75 5.625 14.188 13.063 15.312V20.843H9.625v-4.5h3.938v-3.375c0-3.875 2.313-6.063 5.812-6.063 1.75 0 3.5.313 3.5.313v3.813h-1.937c-1.938 0-2.562 1.187-2.562 2.438v2.875h4.313l-.688 4.5h-3.625v10.812c7.437-1.125 13.125-7.562 13.125-15.312z"/></symbol><symbol id="Tweeter" viewBox="0 0 37 32"><path style="fill:var(--color1, )" d="M33.469 8.283c1.458-1.094 2.771-2.406 3.792-3.938a14.363 14.363 0 0 1-4.375 1.167c1.604-.948 2.771-2.406 3.354-4.229a16.177 16.177 0 0 1-4.812 1.896A7.657 7.657 0 0 0 25.813.773a7.655 7.655 0 0 0-7.656 7.656c0 .583.073 1.167.219 1.75A22.215 22.215 0 0 1 2.553 2.158c-.656 1.094-1.021 2.406-1.021 3.865a7.536 7.536 0 0 0 3.427 6.344c-1.24-.073-2.479-.365-3.5-.948v.073c0 3.719 2.625 6.781 6.125 7.511-.583.146-1.313.292-1.969.292-.51 0-.948-.073-1.458-.146.948 3.063 3.792 5.25 7.146 5.323-2.625 2.042-5.906 3.281-9.479 3.281-.656 0-1.24-.073-1.823-.146 3.354 2.187 7.365 3.427 11.74 3.427 14.073 0 21.729-11.594 21.729-21.729V8.284z"/></symbol><symbol id="Youtube" viewBox="0 0 45 32"><path style="fill:var(--color1, )" d="M43.664 5.831c-.486-1.944-2.025-3.484-3.889-3.97C36.291.889 22.518.889 22.518.889s-13.854 0-17.338.972c-1.863.486-3.403 2.025-3.889 3.97C.319 9.234.319 16.526.319 16.526s0 7.211.972 10.694c.486 1.944 2.025 3.403 3.889 3.889C8.664 32 22.518 32 22.518 32s13.773 0 17.257-.891c1.863-.486 3.403-1.944 3.889-3.889.972-3.484.972-10.694.972-10.694s0-7.292-.972-10.694zM17.982 23.088V9.963l11.505 6.563-11.505 6.563z"/></symbol><symbol id="Linkedin" viewBox="0 0 32 32"><path style="fill:var(--color1, )" d="M7.25 32V10.901H.687V32H7.25zM3.933 8.079c2.117 0 3.81-1.764 3.81-3.881 0-2.046-1.694-3.74-3.81-3.74-2.046 0-3.74 1.694-3.74 3.74 0 2.117 1.694 3.881 3.74 3.881zM31.736 32h.071V20.427c0-5.645-1.27-10.02-7.903-10.02-3.175 0-5.292 1.764-6.21 3.387h-.07v-2.893h-6.28V32h6.562V21.556c0-2.752.494-5.363 3.881-5.363s3.458 3.105 3.458 5.575V32h6.492z"/></symbol></defs></svg>