<svg xmlns="http://www.w3.org/2000/svg" aria-hidden="true" style="position:absolute;width:0;height:0;overflow:hidden">
  <defs>
    <!-- logo icon -->
    <symbol id="icon-logo" viewBox="0 0 37 32">
      <path fill="#28a745"
        d="M33.831 2.003c-3.419.194-10.215.902-14.41 3.474a.961.961 0 0 0-.454.823v22.742c0 .722.788 1.178 1.453.843 4.316-2.176 10.559-2.77 13.645-2.932 1.054-.056 1.873-.902 1.873-1.916V3.922c.001-1.107-.958-1.984-2.107-1.919zM16.517 5.478C12.322 2.906 5.526 2.199 2.107 2.004.958 1.939-.001 2.816-.001 3.923v21.116c0 1.015.819 1.861 1.873 1.916 3.088.162 9.333.757 13.65 2.934.663.334 1.448-.121 1.448-.841V6.29a.94.94 0 0 0-.454-.812z"
        style="fill:var(--color1, #28a745)" />
    </symbol>
    <!-- Hero btn-->
    <symbol id="icon-arrow_btn" viewBox="0 0 16 32">
      <path fill="#fff" style="fill: var(--color1, #fff)"
        d="M14.019 17.062l-8.5 8.5c-0.588 0.588-1.538 0.588-2.119 0l-1.413-1.412c-0.587-0.588-0.587-1.538 0-2.119l6.025-6.025-6.025-6.025c-0.587-0.588-0.587-1.537 0-2.119l1.406-1.425c0.587-0.588 1.537-0.588 2.119 0l8.5 8.5c0.594 0.588 0.594 1.538 0.006 2.125z">
      </path>
    </symbol>
    <!-- About -->
    <symbol id="icon-pensil" viewBox="0 0 32 32">
      <path fill="#fff"
        d="m31.119 8.881-2.881 2.881a.75.75 0 0 1-1.063 0l-6.938-6.938a.75.75 0 0 1 0-1.063L23.118.88a3.006 3.006 0 0 1 4.244 0l3.756 3.756a2.995 2.995 0 0 1 0 4.244zM17.763 6.238 1.35 22.651.025 30.245a1.503 1.503 0 0 0 1.738 1.738l7.594-1.331L25.77 14.24a.75.75 0 0 0 0-1.063l-6.938-6.938a.758.758 0 0 0-1.069 0zM7.756 21.244a.87.87 0 0 1 0-1.237l9.625-9.625c.344-.344.894-.344 1.238 0s.344.894 0 1.238l-9.625 9.625a.87.87 0 0 1-1.237 0zM5.5 26.5h3v2.269l-4.031.706-1.944-1.944.706-4.031H5.5v3z"
        style="fill:var(--color2, #fff)" />
    </symbol>
    <symbol id="icon-university" viewBox="0 0 32 32">
      <path fill="#fff"
        d="M31 8v1a.498.498 0 0 1-.5.5H29v.75a.75.75 0 0 1-.75.75H3.75a.75.75 0 0 1-.75-.75V9.5H1.5A.498.498 0 0 1 1 9V8a.5.5 0 0 1 .308-.462l14.5-5.5a.496.496 0 0 1 .382 0l14.5 5.5a.503.503 0 0 1 .308.462zm-1.5 19h-27A1.5 1.5 0 0 0 1 28.5v1a.498.498 0 0 0 .5.5h29a.498.498 0 0 0 .5-.5v-1a1.5 1.5 0 0 0-1.5-1.5zM6 12v12H3.75a.75.75 0 0 0-.75.75V26h26v-1.25a.75.75 0 0 0-.75-.75H26V12h-4v12h-4V12h-4v12h-4V12H6z"
        style="fill:var(--color2, #fff)" />
    </symbol>
    <symbol id="icon-book" viewBox="0 0 32 32">
      <path fill="#fff"
        d="M21.858 6.167a5.9 5.9 0 1 0-11.801.001 5.9 5.9 0 0 0 11.801-.001zm-7.277 8.917c-3.646-2.232-9.552-2.845-12.524-3.014-.999-.056-1.831.704-1.831 1.665v13.693c0 .881.712 1.615 1.628 1.662 2.683.141 8.112.656 11.864 2.546.576.29 1.259-.105 1.259-.73V15.788a.818.818 0 0 0-.395-.704zm15.278-3.014c-2.971.168-8.878.782-12.524 3.014a.833.833 0 0 0-.394.715v15.106c0 .626.685 1.022 1.262.731 3.751-1.888 9.177-2.404 11.859-2.544.916-.048 1.628-.782 1.628-1.663V13.735c-.001-.961-.833-1.721-1.832-1.665z"
        style="fill:var(--color2, #fff)" />
    </symbol>
    <!-- Social link -->
    <symbol id="Fasebook" viewBox="0 0 32 32">
      <path fill="" style="fill: var(--color1, )"
        d="M31.5 16.343c0-8.563-6.938-15.5-15.5-15.5s-15.5 6.938-15.5 15.5c0 7.75 5.625 14.188 13.063 15.312v-10.812h-3.938v-4.5h3.938v-3.375c0-3.875 2.313-6.063 5.812-6.063 1.75 0 3.5 0.313 3.5 0.313v3.813h-1.937c-1.938 0-2.562 1.187-2.562 2.438v2.875h4.313l-0.688 4.5h-3.625v10.812c7.437-1.125 13.125-7.562 13.125-15.312z">
      </path>
    </symbol>
    <symbol id="Tweeter" viewBox="0 0 37 32">
      <path fill="" style="fill: var(--color1, )"
        d="M33.469 8.283c1.458-1.094 2.771-2.406 3.792-3.938-1.312 0.583-2.844 1.021-4.375 1.167 1.604-0.948 2.771-2.406 3.354-4.229-1.458 0.875-3.135 1.531-4.812 1.896-1.458-1.531-3.427-2.406-5.615-2.406-4.229 0-7.656 3.427-7.656 7.656 0 0.583 0.073 1.167 0.219 1.75-6.344-0.365-12.031-3.427-15.823-8.021-0.656 1.094-1.021 2.406-1.021 3.865 0 2.625 1.313 4.958 3.427 6.344-1.24-0.073-2.479-0.365-3.5-0.948v0.073c0 3.719 2.625 6.781 6.125 7.511-0.583 0.146-1.313 0.292-1.969 0.292-0.51 0-0.948-0.073-1.458-0.146 0.948 3.063 3.792 5.25 7.146 5.323-2.625 2.042-5.906 3.281-9.479 3.281-0.656 0-1.24-0.073-1.823-0.146 3.354 2.187 7.365 3.427 11.74 3.427 14.073 0 21.729-11.594 21.729-21.729 0-0.365 0-0.656 0-1.021z">
      </path>
    </symbol>
    <symbol id="Youtube" viewBox="0 0 45 32">
      <path fill="" style="fill: var(--color1, )"
        d="M43.664 5.831c-0.486-1.944-2.025-3.484-3.889-3.97-3.484-0.972-17.257-0.972-17.257-0.972s-13.854 0-17.338 0.972c-1.863 0.486-3.403 2.025-3.889 3.97-0.972 3.403-0.972 10.695-0.972 10.695s0 7.211 0.972 10.694c0.486 1.944 2.025 3.403 3.889 3.889 3.484 0.891 17.338 0.891 17.338 0.891s13.773 0 17.257-0.891c1.863-0.486 3.403-1.944 3.889-3.889 0.972-3.484 0.972-10.694 0.972-10.694s0-7.292-0.972-10.694zM17.982 23.088v-13.125l11.505 6.563-11.505 6.563z">
      </path>
    </symbol>
    <symbol id="Linkedin" viewBox="0 0 32 32">
      <path fill="" style="fill: var(--color1, )"
        d="M7.25 32v-21.099h-6.563v21.099h6.563zM3.933 8.079c2.117 0 3.81-1.764 3.81-3.881 0-2.046-1.694-3.74-3.81-3.74-2.046 0-3.74 1.694-3.74 3.74 0 2.117 1.694 3.881 3.74 3.881zM31.736 32h0.071v-11.573c0-5.645-1.27-10.020-7.903-10.020-3.175 0-5.292 1.764-6.21 3.387h-0.070v-2.893h-6.28v21.099h6.562v-10.444c0-2.752 0.494-5.363 3.881-5.363s3.458 3.105 3.458 5.575v10.232h6.492z">
      </path>
    </symbol>
  </defs>
</svg>